<?xml version="1.0" encoding="utf-8"?>
<!-- Generator: Adobe Illustrator 24.1.1, SVG Export Plug-In . SVG Version: 6.00 Build 0)  -->
<svg version="1.1" id="Layer_1" xmlns="http://www.w3.org/2000/svg" xmlns:xlink="http://www.w3.org/1999/xlink" x="0px" y="0px"
	 viewBox="0 0 145.7 150.8" style="enable-background:new 0 0 145.7 150.8;" xml:space="preserve">
<style type="text/css">
	.st0{fill:#333C45;}
	.st1{fill:none;}
</style>
<circle class="st0" cx="43.2" cy="29.7" r="13.1"/>
<circle class="st0" cx="104.7" cy="30.7" r="13.1"/>
<path class="st0" d="M68.9,49.4c-0.1,14-7.7,30.3-27.5,30.2S14.3,63,14.3,49.1s7.6-30.3,27.5-30.2S69,35.4,68.9,49.4z M60.3,49.4
	c0-10.7-4.9-22.9-18.5-23S22.9,38.4,22.9,49.1s4.9,22.9,18.6,23S60.1,60.1,60.3,49.4z"/>
<path class="st0" d="M132,49.9c-0.1,14-7.7,30.3-27.5,30.2S77.3,63.5,77.4,49.5s7.6-30.3,27.5-30.2S132.1,35.9,132,49.9z
	 M123.3,49.8c0.1-10.7-4.8-22.9-18.5-23C91.2,26.8,86,38.9,85.9,49.6s4.9,22.9,18.6,23S123.3,60.5,123.3,49.8z"/>
<path class="st0" d="M60.6,61.8l10,20.5c0.8,1.6,3.5,1.7,4.3,0l9.2-21c0.6-1.2,0.3-2.6-0.9-3.4c-1.2-0.7-2.7-0.3-3.4,0.9l-9.2,21
	h4.3l-10-20.6c-0.7-1.2-2.2-1.6-3.4-0.9C60.4,59.1,60,60.6,60.6,61.8L60.6,61.8z"/>
<polygon class="st0" points="121.1,84.1 113.3,84.1 113.3,122.1 74.4,122.1 74.4,115 99.6,115 99.6,84.1 91.6,84.1 91.6,107 
	44.7,107 44.7,102.9 56.1,102.9 56.1,84.1 47.9,84.1 47.9,94.7 32,94.7 32,84.1 23.7,84.1 23.7,102.9 36.7,102.9 36.7,115 66.5,115 
	66.5,130 92.4,130 92.4,150.8 100.4,150.8 100.4,130 121.1,130 "/>
<path class="st0" d="M60,33.2h9.9c-0.7-6-4-11.3-9-14.7c-5.6-4-12.6-5.1-19.4-5.2C35,13.1,28.3,14,21.8,12.7
	C16.3,11.5,10,7.9,9.8,1.5c0-0.5-0.1-1-0.3-1.5H0.3C0.1,0.5,0,1,0,1.5c0.1,6.8,3.7,12.5,9.2,16.4c5.6,4,12.6,5.1,19.4,5.3
	c6.5,0.2,13.2-0.7,19.7,0.6C53.2,24.9,58.9,27.9,60,33.2z"/>
<path class="st0" d="M145.4,0h-9.3c-0.2,0.5-0.3,1-0.3,1.5c0,5.7-5.4,9.4-10.4,10.8c-6.9,1.9-14.2,0.8-21.2,1
	c-6.7,0.2-13.8,1.3-19.4,5.2c-5,3.4-8.3,8.7-9,14.7h10c1-4.7,5.6-7.8,10.1-9c6.9-1.8,14.2-0.8,21.2-1c6.7-0.2,13.8-1.3,19.4-5.3
	c5.4-3.9,9.1-9.6,9.2-16.4C145.6,1,145.5,0.5,145.4,0z"/>
<path class="st0" d="M31.9-15.3"/>
<path class="st0" d="M61.5,58.4"/>
<line class="st1" x1="63.1" y1="59.8" x2="82" y2="59.8"/>
</svg>
